<?xml version="1.0" standalone="no"?><!DOCTYPE svg PUBLIC "-//W3C//DTD SVG 1.1//EN" "http://www.w3.org/Graphics/SVG/1.1/DTD/svg11.dtd"><svg t="1764754791773" class="icon" viewBox="0 0 1024 1024" version="1.1" xmlns="http://www.w3.org/2000/svg" p-id="11204" xmlns:xlink="http://www.w3.org/1999/xlink" width="200" height="200"><path d="M629.937949 747.478744c127.996526-77.626845 124.924609-104.591447 187.630717-69.727632 219.032531 121.511369 209.914302 202.015088 204.453117 221.860645-21.942262 77.968169-165.200849 141.113122-321.527273 102.397221a961.948747 961.948747 0 0 1-441.088218-245.168203A947.418094 947.418094 0 0 1 11.800061 320.287291C-27.208404 165.472446 36.521675 23.822957 115.367535 2.026977c20.040599-5.558706 101.422009-14.433132 224.103632 202.063849 35.058858 62.413544 8.094256 59.487909-70.215237 185.972857-36.716718 59.146585 23.258797 139.406502 23.258797 139.406502s40.958888 63.583798 86.598792 108.931138c45.737425 45.444862 110.101392 85.672341 110.101393 85.672342-0.097521 0 81.040086 59.292867 140.723037 23.405079zM990.815011 44.399922c10.581046 10.581046 17.358767 24.965418 17.797612 40.763846l6.338876 241.072314a53.344076 53.344076 0 0 1-55.39202 55.294499 60.560642 60.560642 0 0 1-58.317656-58.317655l-2.438029-104.201362-219.032531 219.032531c-21.503416 21.552177-57.244922 20.625726-80.162395-2.291747-22.771191-22.771191-23.405079-59.049064-2.291748-80.162396L816.447173 136.557421l-104.250123-2.438029a60.560642 60.560642 0 0 1-57.293683-58.220134A53.344076 53.344076 0 0 1 709.222654 20.507238l237.464031 6.192593c16.286034-0.585127 32.328265 5.85127 44.177087 17.700091z" fill="#3890f7" p-id="11205"></path></svg>